<?xml version="1.0" standalone="no"?> <!DOCTYPE svg PUBLIC "-//W3C//DTD SVG 1.0//EN" "http://www.w3.org/TR/2001/REC-SVG-20010904/DTD/svg10.dtd" > <svg xmlns="http://www.w3.org/2000/svg" width="100%" height="100%">
<defs >
<font id="pfagorasansprobold" horiz-adv-x="474" ><font-face
    font-family="PF Agora Sans Pro"
    units-per-em="1000"
    panose-1="2 0 8 0 0 0 0 2 0 4"
    ascent="750"
    descent="-250"
    alphabetic="0" />
<missing-glyph horiz-adv-x="445" d="M0 687H445V0H0V687ZM350 60L222 288L94 60H350ZM350 627H93L222 400L350 627ZM61 119L187 345L61 570V119ZM383 117V571L257 343L383 117Z" />
<glyph unicode=" " glyph-name="space" horiz-adv-x="294" />
<glyph unicode="!" glyph-name="exclam" horiz-adv-x="283" d="M207 705L206 439L193 194H89L75 439L73 705H207ZM217 60Q217 31 197 11T140 -9Q103 -9 84 11T65 60Q65 89 84 109T140 129Q178 129 197 109T217 60Z" />
<glyph unicode="&quot;" glyph-name="quotedbl" horiz-adv-x="364" d="M72 447L54 689H169L150 447H72ZM216 447L198 689H313L295 447H216Z" />
<glyph unicode="#" glyph-name="numbersign" horiz-adv-x="575" d="M442 395L412 264H493L489 197H398L353 0H275L320 197H207L161 0H84L129 197H55L60 264H144L175 395H92L97 461H190L232 637H308L268 461H381L423 637H499L458 461H532L527 395H442ZM222 264H336L365
395H252L222 264Z" />
<glyph unicode="$" glyph-name="dollar" horiz-adv-x="590" d="M306 738H353V671Q387 668 423 660T489 635L464 547Q425 562 401 567T353 575V385Q386 374 419 360T478 325T521 273T538 199Q538 157 525 125T486 70T427 31T353 9V-75H306V738ZM274 -75H228V6Q186
11 143 21T61 52L94 144Q127 131 148 125T184 115T209 110T228 107V307Q195 318 165 333T112 369T76 418T62 485Q62 524 75 555T110 610T163 648T228 669V738H274V-75ZM425 192Q425 224 405 242T353 272V107Q425 120 425 192ZM167 493Q167 461 183 445T228 418V570Q201
563 184 544T167 493Z" />
<glyph unicode="%" glyph-name="percent" horiz-adv-x="900" d="M388 465Q388 426 379 389T350 324T295 278T211 260Q158 260 123 277T68 322T39 387T31 464Q31 503 39 540T67 606T123 654T212 672Q266 672 300 654T353 606T380 539T388 465ZM284 464Q284 485
282 508T273 551T251 582T212 595Q187 595 172 583T149 551T138 509T135 464Q135 437 138 414T149 373T173 347T212 337Q234 337 248 347T270 376T281 417T284 464ZM334 -20H247L562 708H648L334 -20ZM868 199Q868 159 859 122T830 57T775 11T691 -6Q638 -6 603
10T548 55T519 121T511 199Q511 237 519 274T547 340T603 388T692 406Q746 406 780 388T833 340T860 273T868 199ZM764 199Q764 220 762 243T753 285T731 316T692 329Q667 329 652 317T629 285T618 243T615 198Q615 171 618 148T629 107T653 80T692 70Q714 70 728
80T750 109T761 150T764 199Z" />
<glyph unicode="&amp;" glyph-name="ampersand" horiz-adv-x="790" d="M288 -13Q237 -13 193 -1T115 37T64 101T45 190Q45 252 83 306T202 405Q178 440 167 473T155 535Q155 562 163 590T191 642T243 679T321 694Q372 694 405 680T459 644T487 597T495 549Q495
519 484 494T454 448T411 410T360 376Q393 329 433 280T516 187Q535 205 550 226T578 274T598 337T613 418H720Q715 316 684 246T595 116Q629 86 667 60T738 20Q726 -1 713 -22T688 -64Q668 -56 645 -44T598 -16T551 16T508 50Q460 18 404 3T288 -13ZM173 198Q173
170 183 149T210 114T251 93T301 86Q330 86 361 95T421 122Q373 170 335 223T263 321Q225 298 199 268T173 198ZM269 544Q269 525 279 502T306 454Q338 471 363 493T389 548Q389 575 372 590T325 606Q310 606 300 600T283 585T273 565T269 544Z" />
<glyph unicode="&apos;" glyph-name="quotesingle" horiz-adv-x="239" d="M79 447L62 689H177L158 447H79Z" />
<glyph unicode="(" glyph-name="parenleft" horiz-adv-x="332" d="M62 280Q62 352 77 417T117 537T171 636T230 713L290 675Q278 657 259 623T223 539T194 426T181 283Q181 196 193 128T223 9T259 -76T291 -128L230 -169Q201 -138 171 -93T117 8T78 133T62 280Z" />
<glyph unicode=")" glyph-name="parenright" horiz-adv-x="334" d="M267 280Q267 202 252 134T212 10T157 -92T98 -168L39 -128Q51 -109 70 -75T106 10T135 129T148 284Q148 362 136 426T106 540T70 623T39 675L100 713Q129 681 158 637T212 537T251 418T267 280Z" />
<glyph unicode="*" glyph-name="asterisk" horiz-adv-x="422" d="M348 637Q363 612 370 587T382 535Q351 531 321 527T259 520Q282 500 303 479T347 438Q327 420 307 405T263 376Q249 403 237 431T212 485Q199 459 186 432T161 376Q137 389 117 403T75 438L163
521L44 536Q50 565 57 589T77 639L182 579Q176 608 170 637T158 695Q172 697 185 698T213 699Q227 699 240 698T267 695Q261 666 255 637T242 579L348 637Z" />
<glyph unicode="+" glyph-name="plus" horiz-adv-x="590" d="M347 261V91H262V261H97V344H262V510H347V344H510V261H347Z" />
<glyph unicode="," glyph-name="comma" horiz-adv-x="263" d="M51 64Q51 93 72 114T128 135Q171 135 191 110T211 49Q211 21 201 -8T174 -64T132 -113T80 -150L46 -105Q96 -60 102 -1Q51 9 51 64Z" />
<glyph unicode="-" glyph-name="hyphen" horiz-adv-x="393" d="M59 219V318H334V219H59Z" />
<glyph unicode="." glyph-name="period" horiz-adv-x="253" d="M202 64Q202 33 182 13T124 -8Q86 -8 66 12T46 64Q46 94 66 114T124 135Q162 135 182 115T202 64Z" />
<glyph unicode="/" glyph-name="slash" horiz-adv-x="371" d="M105 -33H8L267 706H365L105 -33Z" />
<glyph unicode="0" glyph-name="zero" horiz-adv-x="590" d="M561 332Q561 266 548 205T503 96T420 21T294 -8Q214 -8 162 19T79 93T36 201T24 330Q24 393 36 455T79 566T162 645T295 676Q376 676 427 645T509 565T550 454T561 332ZM419 330Q419 368 416 410T400
487T362 545T295 568Q253 568 228 546T189 488T171 411T166 329Q166 280 171 238T190 165T230 116T295 98Q332 98 356 117T394 169T413 244T419 330Z" />
<glyph unicode="1" glyph-name="one" horiz-adv-x="590" d="M236 540L96 527V622L249 667H376V0H236V540Z" />
<glyph unicode="2" glyph-name="two" horiz-adv-x="590" d="M245 100H531V0H47V88Q76 113 110 143T178 205T245 270T302 338T342 405T357 469Q357 515 330 538T250 562Q224 562 179 553T80 514L36 599Q100 643 163 659T275 676Q380 676 440 626T501 478Q501 424
475 372T410 272T326 182T243 106L245 100Z" />
<glyph unicode="3" glyph-name="three" horiz-adv-x="590" d="M345 413Q379 409 413 397T473 361T515 303T532 217Q532 160 511 118T454 47T368 4T261 -10Q213 -8 154 1T43 37L78 135Q137 116 174 110T242 103Q311 103 350 132T389 218Q389 265 354 294T236 323Q224
323 212 322T186 319Q185 325 183 335T178 356T173 378T169 394Q186 411 207 431T249 473T292 514T331 552Q330 554 329 556T328 560H74V667H499Q500 661 502 649T508 623T513 598T517 580L343 419L345 413Z" />
<glyph unicode="4" glyph-name="four" horiz-adv-x="590" d="M467 667V269H564V170H467V0H331V170H28V256Q44 278 67 310T118 381T174 461T230 540T280 612T320 667H467ZM327 511Q309 486 288 455T245 390T202 326T161 269H334V511H327Z" />
<glyph unicode="5" glyph-name="five" horiz-adv-x="590" d="M260 331Q236 331 211 325T159 307L84 344L109 667H502V561H220L210 421Q222 423 243 428T297 433Q346 433 389 420T465 380T517 313T536 218Q536 161 515 119T458 48T374 5T272 -9Q249 -9 221 -7T163
0T103 15T46 38L79 135Q139 117 177 110T247 103Q316 103 355 132T394 221Q394 249 383 270T354 304T312 324T260 331Z" />
<glyph unicode="6" glyph-name="six" horiz-adv-x="590" d="M191 384Q227 404 263 414T340 425Q382 425 419 413T484 374T528 309T544 216Q544 162 526 120T476 50T399 7T301 -8Q229 -8 180 16T101 81T57 179T44 301Q44 380 60 448T111 566T201 646T337 675Q390
675 428 666T488 649Q486 642 483 628T477 599T471 570T466 549Q430 561 399 565T346 569Q301 569 271 550T223 503T196 444T184 388L191 384ZM409 213Q409 237 404 257T388 292T356 315T306 324Q280 324 260 319T224 306T199 293T185 284V266Q185 240 189 211T205
158T241 117T301 101Q353 101 381 131T409 213Z" />
<glyph unicode="7" glyph-name="seven" horiz-adv-x="590" d="M80 561V667H519V576L257 0H119L380 561H80Z" />
<glyph unicode="8" glyph-name="eight" horiz-adv-x="590" d="M204 499Q204 479 214 465T241 439T282 417T332 394Q371 423 386 447T401 496Q401 510 396 525T378 552T346 572T299 580Q273 580 255 572T226 551T210 524T204 499ZM293 94Q321 94 342 102T379 123T401
155T409 192Q409 213 400 229T371 260T323 289T255 319Q210 288 195 254T179 188Q179 150 207 122T293 94ZM528 506Q528 471 510 431T438 350Q486 325 516 284T547 183Q547 142 529 107T478 47T397 7T291 -8Q171 -8 105 42T39 176Q39 198 44 223T63 274T99 324T155
368Q113 394 93 424T72 501Q72 539 89 571T136 628T209 665T301 679Q340 679 380 670T453 640T507 586T528 506Z" />
<glyph unicode="9" glyph-name="nine" horiz-adv-x="590" d="M392 282Q319 241 243 241Q200 241 163 253T99 291T55 356T39 450Q39 504 57 546T107 616T184 660T282 675Q354 675 403 651T482 586T525 488T539 365Q539 286 523 218T472 100T381 22T246 -7Q192 -7
152 1T89 18L114 117Q149 105 181 102T237 98Q281 98 310 117T358 163T386 222T398 278L392 282ZM173 453Q173 429 178 409T195 374T226 351T276 342Q302 342 322 347T358 360T383 373T397 382V401Q397 426 393 454T377 507T342 548T282 564Q229 564 201 534T173
453Z" />
<glyph unicode=":" glyph-name="colon" horiz-adv-x="259" d="M209 64Q209 34 189 13T130 -8Q92 -8 73 13T53 64Q53 96 72 116T130 136Q168 136 188 116T209 64ZM209 367Q209 336 189 316T130 295Q92 295 73 315T53 367Q53 398 72 418T130 438Q168 438 188 418T209 367Z" />
<glyph unicode=";" glyph-name="semicolon" horiz-adv-x="259" d="M209 367Q209 336 189 316T130 295Q92 295 73 315T53 367Q53 398 72 418T130 438Q168 438 188 418T209 367ZM50 64Q50 93 71 114T127 135Q170 135 190 110T210 49Q210 21 200 -8T173 -64T131 -113T80
-150L45 -105Q93 -60 101 -1Q50 9 50 64Z" />
<glyph unicode="&lt;" glyph-name="less" horiz-adv-x="598" d="M524 47L80 264V333L524 549V452L192 300L524 143V47Z" />
<glyph unicode="=" glyph-name="equal" horiz-adv-x="598" d="M86 340V421H511V340H86ZM86 180V260H511V180H86Z" />
<glyph unicode="&gt;" glyph-name="greater" horiz-adv-x="598" d="M80 143L412 300L80 452V549L524 333V264L80 47V143Z" />
<glyph unicode="?" glyph-name="question" horiz-adv-x="496" d="M253 435Q283 461 297 483T312 536Q312 568 289 584T225 601Q193 601 158 596T75 575L45 672Q105 694 157 702T251 710Q353 710 406 670T466 560Q466 520 451 488T414 429T366 379T317 334T280
289T265 239Q265 227 266 215T270 187L153 181Q149 205 147 224T145 258Q145 287 153 310T175 354T209 394T253 435ZM297 55Q297 26 278 8T222 -11Q186 -11 167 7T147 55Q147 85 166 104T222 124Q259 124 278 105T297 55Z" />
<glyph unicode="@" glyph-name="at" horiz-adv-x="970" d="M505 713Q595 713 666 688T786 615T862 503T889 356Q889 301 873 259T828 189T761 145T681 130Q663 130 644 133T608 144T576 164T554 194Q528 166 492 153T422 139Q384 139 361 151T324 181T306 219T301
257Q301 292 314 313T355 348T428 368T536 382V397Q536 429 525 443T475 457Q450 457 420 452T358 438L337 513Q374 527 415 535T498 543Q531 543 558 537T605 515T636 474T647 410V260Q647 239 659 226T701 213Q717 213 734 220T765 244T789 287T799 350Q799 414
779 465T721 553T629 608T505 628Q435 628 374 605T268 540T196 444T170 323Q170 257 193 201T257 104T354 40T478 17Q506 17 540 21T622 42L650 -31Q611 -50 565 -58T479 -67Q386 -67 312 -38T187 43T108 166T80 321Q80 405 112 477T202 601T337 683T505 713ZM536
320Q519 318 499 316T462 310T433 295T421 267Q421 245 432 233T468 220Q501 220 536 249V320Z" />
<glyph unicode="A" glyph-name="A" horiz-adv-x="664" d="M503 0L455 157H204L155 0H8L242 687H428L655 0H503ZM374 438L334 587H329L287 433L236 257H425L374 438Z" />
<glyph unicode="B" glyph-name="B" horiz-adv-x="658" d="M496 358Q531 346 552 326T584 284T598 239T602 200Q602 155 586 118T542 55T473 14T385 0H72V687H372Q479 687 531 636T584 503Q584 487 580 468T566 429T539 393T496 363V358ZM219 305V104H344Q402 104
427 133T452 206Q452 247 426 276T344 305H219ZM219 583V405H330Q381 405 407 427T433 491Q433 533 409 558T330 583H219Z" />
<glyph unicode="C" glyph-name="C" horiz-adv-x="627" d="M385 701Q438 701 484 693T568 673L547 565Q507 576 471 580T404 585Q308 585 258 526T208 345Q208 286 218 242T251 167T313 122T408 107Q420 107 439 108T481 113T526 120T569 129L593 27Q571 18 545
12T490 0T432 -7T377 -10Q282 -10 220 17T120 91T67 202T52 340Q52 400 67 464T119 580T221 667T385 701Z" />
<glyph unicode="D" glyph-name="D" horiz-adv-x="690" d="M73 0V688H331Q422 688 481 661T575 587T623 478T637 346Q637 277 622 214T570 104T474 28T325 0H73ZM222 584V106H313Q339 106 369 114T424 148T467 220T484 341Q484 417 468 464T428 538T373 574T313 584H222Z" />
<glyph unicode="E" glyph-name="E" horiz-adv-x="606" d="M72 0V688H546V584H221V409H494V311H221V105H560V0H72Z" />
<glyph unicode="F" glyph-name="F" horiz-adv-x="574" d="M72 0V688H541V583H220V397H471V297H220V0H72Z" />
<glyph unicode="G" glyph-name="G" horiz-adv-x="667" d="M399 701Q451 701 500 693T588 673L567 567Q525 578 487 582T416 587Q310 587 259 525T208 334Q208 282 217 240T246 169T300 123T383 107Q403 107 428 110T474 118V363H609V28Q551 8 490 -1T375 -10Q281
-10 219 18T120 94T68 206T52 342Q52 402 67 466T120 582T226 667T399 701Z" />
<glyph unicode="H" glyph-name="H" horiz-adv-x="710" d="M487 0V306H220Q220 229 220 153T221 0H72V687H221Q221 618 221 550T220 413H487V687H636V0H487Z" />
<glyph unicode="I" glyph-name="I" horiz-adv-x="308" d="M81 0V688H227V0H81Z" />
<glyph unicode="J" glyph-name="J" horiz-adv-x="365" d="M127 689H274L273 151Q273 8 200 -74T-16 -192L-51 -90Q2 -62 36 -37T90 16T118 77T126 156L127 689Z" />
<glyph unicode="K" glyph-name="K" horiz-adv-x="665" d="M225 419L267 467L470 687H641L379 418L656 0H482Q431 81 381 160T279 320L218 258V0H72V687H218V419H225Z" />
<glyph unicode="L" glyph-name="L" horiz-adv-x="579" d="M72 0V688H220V103H569V0H72Z" />
<glyph unicode="M" glyph-name="M" horiz-adv-x="890" d="M670 464L620 337Q607 308 592 272T561 200T530 127T502 62H381Q368 92 353 129T323 203T292 277T262 344L218 459H215Q215 412 215 352T215 230T214 107T214 0H72V687H254L344 464Q354 438 366 407T392
342T417 276T440 219H448Q472 277 497 340T546 462Q556 483 568 513T593 574T618 636T641 687H817V0H673V464H670Z" />
<glyph unicode="N" glyph-name="N" horiz-adv-x="742" d="M526 214V687H669V0H521L288 370Q271 399 254 427T219 484Q217 484 217 484T214 483V0H72V687H221Q275 603 327 521T433 354L520 214H526Z" />
<glyph unicode="O" glyph-name="O" horiz-adv-x="746" d="M694 344Q694 268 674 204T614 92T515 17T376 -10Q292 -10 231 15T131 87T72 198T53 342Q53 416 71 481T129 595T229 672T376 700Q462 700 522 672T621 595T676 482T694 344ZM537 342Q537 389 531 434T507
515T458 573T376 595Q325 595 293 574T241 517T215 436T208 341Q208 224 245 161T376 97Q419 97 450 115T500 167T528 244T537 342Z" />
<glyph unicode="P" glyph-name="P" horiz-adv-x="597" d="M569 477Q569 440 557 402T518 334T449 284T345 264H220L221 0H72V688H333Q451 688 510 631T569 477ZM220 584V365H317Q337 365 355 370T388 389T410 423T419 474Q419 533 389 558T312 584H220Z" />
<glyph unicode="Q" glyph-name="Q" horiz-adv-x="751" d="M692 342Q692 239 656 159T548 37Q585 26 623 17T698 -2Q687 -30 677 -58T655 -114Q577 -87 499 -61T342 -8Q266 -1 212 26T122 97T69 203T52 341Q52 415 70 480T128 594T228 671T375 700Q461 700 521
672T620 594T675 480T692 342ZM536 341Q536 388 530 433T506 513T457 571T375 593Q325 593 293 572T241 516T215 435T207 340Q207 281 216 236T245 159T297 112T375 95Q418 95 448 113T498 165T527 243T536 341Z" />
<glyph unicode="R" glyph-name="R" horiz-adv-x="645" d="M576 490Q576 462 569 435T548 384T511 342T459 313V312Q502 298 521 265T551 192L606 0H459Q446 45 433 89T407 180Q391 237 363 257T292 277H218V0H72V687H351Q410 687 452 672T522 629T563 566T576
490ZM323 378Q341 378 359 383T392 400T416 432T426 482Q426 534 397 558T322 583H218V378H323Z" />
<glyph unicode="S" glyph-name="S" horiz-adv-x="623" d="M320 701Q371 701 429 691T538 652L500 552Q449 573 401 579T315 586Q268 586 241 564T214 498Q214 478 225 465T256 441T299 424T351 411Q386 402 426 390T501 355T558 294T581 195Q581 97 509 44T292
-10Q266 -10 235 -7T170 2T104 19T41 45L79 149Q152 120 210 112T303 104Q364 104 395 124T426 195Q426 217 418 231T395 256T359 274T313 288Q262 301 216 314T135 350T80 405T59 492Q59 586 124 643T320 701Z" />
<glyph unicode="T" glyph-name="T" horiz-adv-x="610" d="M232 0V581H14V688H596V581H379L378 0H232Z" />
<glyph unicode="U" glyph-name="U" horiz-adv-x="709" d="M641 253Q641 192 624 143T572 60T483 8T355 -10Q278 -10 223 8T134 60T83 143T67 253V688H213V248Q213 170 250 134T357 97Q421 97 459 132T498 248L497 688H642L641 253Z" />
<glyph unicode="V" glyph-name="V" horiz-adv-x="647" d="M326 134Q334 163 342 194T359 257Q388 369 418 473T481 688H638Q581 515 525 344T412 0H232Q175 172 120 343T8 688H165Q197 576 227 472T288 257Q296 227 303 196T319 134H326Z" />
<glyph unicode="W" glyph-name="W" horiz-adv-x="943" d="M462 499Q454 459 446 412T430 326L359 0H174L8 688H165Q172 656 182 609T202 512T223 414T240 336Q244 317 248 296T255 252T263 207T271 166H278Q286 203 293 247T308 329Q315 364 325 411T347 509T368
607T386 688H545Q548 678 555 650T571 586T590 508T608 432T624 370T633 335Q634 331 639 308T650 256T661 201T669 167H677Q685 207 692 255T708 342Q715 373 724 419T744 515T764 610T781 688H935Q926 650 913 593T884 471T852 335T820 202T791 85T770 0H588Q579
33 569 75T547 162T526 250T506 326Q503 338 498 362T488 412T477 462T469 498L462 499Z" />
<glyph unicode="X" glyph-name="X" horiz-adv-x="646" d="M234 357Q183 438 130 521T24 687H192Q226 626 259 567T328 446Q363 506 397 566T466 687H633Q577 603 523 521T413 354L638 0H472Q434 64 396 129T320 259L172 0H6Q63 90 120 178T234 357Z" />
<glyph unicode="Y" glyph-name="Y" horiz-adv-x="626" d="M232 247L8 687H162Q183 642 205 599T247 510L308 373H314Q331 406 346 444T379 516L465 687H616Q559 583 503 476T390 264V0H232V247Z" />
<glyph unicode="Z" glyph-name="Z" horiz-adv-x="594" d="M218 107L577 106V0H18V98L358 575L355 582H44V688H559V592L215 113L218 107Z" />
<glyph unicode="[" glyph-name="bracketleft" horiz-adv-x="313" d="M63 -160V699H278V619H182V-83H278V-160H63Z" />
<glyph unicode="\" glyph-name="backslash" horiz-adv-x="371" d="M8 706H106L365 -33H267L8 706Z" />
<glyph unicode="]" glyph-name="bracketright" horiz-adv-x="313" d="M39 -160V-83H134V619H39V699H253V-160H39Z" />
<glyph unicode="^" glyph-name="asciicircum" horiz-adv-x="487" d="M364 355L239 581L113 355H19L205 679H273L458 355H364Z" />
<glyph unicode="_" glyph-name="underscore" horiz-adv-x="500" d="M0 -145V-75H500V-145H0Z" />
<glyph unicode="`" glyph-name="grave" horiz-adv-x="519" d="M149 668Q155 675 166 687T188 712T211 737T229 756Q241 741 261 719T303 673T345 627T378 589L325 531L149 668Z" />
<glyph unicode="a" glyph-name="a" horiz-adv-x="579" d="M484 95H548L555 15Q531 4 499 -3T435 -10Q403 -10 382 1T356 49Q356 49 354 51Q328 28 302 16T254 -2T213 -9T184 -10Q138 -10 109 4T62 40T39 87T32 133Q32 171 46 199T84 247T142 278T214 291Q243 293
281 295T348 299V311Q348 353 330 374T257 396Q221 396 179 389T101 371Q96 394 90 416T78 460Q122 479 180 490T291 501Q335 501 371 492T432 463T470 411T484 330V95ZM249 212Q180 206 180 145Q180 114 196 98T247 82Q270 82 297 93T348 126V220L249 212Z" />
<glyph unicode="b" glyph-name="b" horiz-adv-x="574" d="M192 716V571Q192 561 192 547T191 517T190 488T189 464L196 460Q238 486 275 495T339 505Q394 505 431 486T492 432T524 349T534 245Q534 194 523 148T485 68T412 13T294 -8Q270 -8 240 -6T177 2T113
17T50 41V716H192ZM296 398Q270 398 243 389T194 367V111Q219 100 243 97T287 93Q309 93 328 99T361 123T382 169T390 243Q390 292 383 322T362 369T332 392T296 398Z" />
<glyph unicode="c" glyph-name="c" horiz-adv-x="485" d="M184 246Q184 178 209 140T302 101Q337 101 369 108T434 126L461 31Q424 12 376 2T276 -8Q205 -8 160 11T87 65T50 144T39 240Q39 283 49 329T86 414T160 477T282 502Q314 502 353 498T435 478Q430 453
425 429T413 378Q381 387 355 389T306 392Q246 392 215 354T184 246Z" />
<glyph unicode="d" glyph-name="d" horiz-adv-x="575" d="M251 503Q275 503 312 497T381 472V715H524V0H391L388 44Q386 46 385 46Q349 17 308 5T234 -7Q177 -7 139 12T79 65T48 142T39 235Q39 292 50 341T86 426T152 482T251 503ZM381 372Q364 383 335 391T282
399Q264 399 246 393T214 368T192 318T183 236Q183 192 190 165T211 121T242 99T280 93Q291 93 305 96T333 105T359 117T381 130V372Z" />
<glyph unicode="e" glyph-name="e" horiz-adv-x="544" d="M280 504Q359 504 404 479T471 417T499 339T505 264V213H184Q184 156 212 127T307 98Q347 98 387 106T465 129L494 41Q445 14 391 3T286 -8Q212 -8 164 12T89 68T51 148T40 245Q40 285 50 331T87 415T160
478T280 504ZM286 413Q259 413 241 404T212 380T194 344T186 301H375Q374 350 356 381T286 413Z" />
<glyph unicode="f" glyph-name="f" horiz-adv-x="412" d="M97 398H28V476L98 496V557Q98 592 106 623T136 676T194 712T284 725Q310 725 347 722T419 708L402 611Q381 616 357 618T317 620Q279 620 258 606T237 555V492H378V398H237Q237 387 237 357T237 286T237
199T236 113T236 42T236 0H97V398Z" />
<glyph unicode="g" glyph-name="g" horiz-adv-x="597" d="M120 195Q94 210 76 241T58 320Q58 369 77 403T127 460T199 493T283 504Q312 504 339 501T387 492H563V420H493L490 415Q504 397 510 373T516 325Q516 283 499 251T450 198T378 165T290 154L233 153Q205
153 189 146T172 122Q172 111 182 105T211 98H355Q448 98 500 63T552 -48Q552 -82 536 -112T486 -166T398 -204T267 -218Q194 -218 149 -206T79 -173T46 -128T37 -78Q37 -41 55 -13T99 29Q45 46 45 101Q45 138 67 159T118 191L120 195ZM218 12Q201 5 188 -14T175
-52Q175 -66 179 -79T196 -101T230 -117T287 -123Q347 -123 377 -104T407 -52Q407 -40 404 -29T392 -8T367 6T326 12H218ZM376 326Q376 342 372 357T357 385T329 404T286 412Q240 412 219 388T198 325Q198 286 219 264T280 242Q321 242 348 261T376 326Z" />
<glyph unicode="h" glyph-name="h" horiz-adv-x="569" d="M195 447Q237 472 283 487T364 503Q414 503 444 490T490 453T512 399T518 334V0H375V304Q375 323 373 339T364 367T343 385T305 392Q280 392 249 381T193 355V0H49V715H190V556L187 451L195 447Z" />
<glyph unicode="i" glyph-name="i" horiz-adv-x="299" d="M77 0V491H220V0H77ZM233 627Q233 595 212 573T148 551Q108 551 87 573T66 627Q66 660 87 682T148 704Q190 704 211 682T233 627Z" />
<glyph unicode="j" glyph-name="j" horiz-adv-x="307" d="M83 491H227Q227 290 227 175T226 46Q225 -13 212 -57T172 -133T103 -189T-1 -228Q-3 -224 -8 -210T-20 -179T-32 -149T-40 -131Q-1 -109 23 -91T60 -52T78 -7T83 56V491ZM240 627Q240 595 219 573T156
551Q115 551 95 573T74 627Q74 660 95 682T156 704Q197 704 218 682T240 627Z" />
<glyph unicode="k" glyph-name="k" horiz-adv-x="532" d="M189 323Q191 322 195 322L353 491H513L328 299L364 257Q371 245 384 225T412 180T445 129T477 77T506 32T526 0H368Q335 54 302 107T237 216L194 172V0H49V714H194L193 465Q193 433 192 394T189 323Z" />
<glyph unicode="l" glyph-name="l" horiz-adv-x="272" d="M206 0H64V716H207L206 0Z" />
<glyph unicode="m" glyph-name="m" horiz-adv-x="864" d="M668 0V311Q668 352 655 371T603 391Q580 391 550 381T498 357Q500 341 501 324T502 293V0H361Q361 81 361 160T360 321Q360 390 301 390Q276 390 248 380T193 354V0H50V491H184L187 442L191 440Q233 472
279 487T361 502Q444 502 480 438Q498 452 520 463T567 483T614 497T657 502Q706 502 736 488T783 450T806 395T812 329V0H668Z" />
<glyph unicode="n" glyph-name="n" horiz-adv-x="569" d="M375 0V304Q375 323 373 339T364 367T342 385T305 392Q280 392 249 381T193 355V0H49V491H185L187 446L191 444Q234 473 281 488T364 503Q413 503 443 490T489 453T512 399T518 334V0H375Z" />
<glyph unicode="o" glyph-name="o" horiz-adv-x="577" d="M537 246Q537 195 524 149T481 67T403 11T285 -10Q217 -10 170 10T94 64T53 145T40 245Q40 297 54 343T98 425T175 481T291 502Q360 502 407 482T483 426T524 344T537 246ZM389 245Q389 274 385 302T371
352T341 387T291 401Q260 401 240 388T208 352T192 302T187 245Q187 212 191 184T206 136T238 103T291 91Q321 91 340 103T370 137T385 187T389 245Z" />
<glyph unicode="p" glyph-name="p" horiz-adv-x="575" d="M192 444Q228 473 267 486T340 499Q397 499 434 479T494 425T525 346T534 248Q534 194 523 147T487 66T422 11T324 -9Q312 -9 296 -8T261 -3T225 5T192 20V-209H50V492H184L187 448L192 444ZM291 92Q310
92 328 99T360 125T382 174T391 254Q391 297 384 324T363 367T332 389T294 395Q282 395 268 392T240 383T214 371T193 357V119Q210 108 238 100T291 92Z" />
<glyph unicode="q" glyph-name="q" horiz-adv-x="575" d="M384 17Q382 19 381 20T377 23Q339 4 304 -3T244 -11Q188 -11 150 6T87 53T51 127T40 224Q40 279 51 329T92 417T170 477T295 500Q317 500 345 498T405 490T466 476T523 457V-208H383V-82Q383 -59 383
-34T384 17ZM277 93Q303 93 330 102T380 123V381Q358 390 337 393T294 397Q270 397 250 389T215 363T192 316T183 244Q183 197 190 168T210 122T240 99T277 93Z" />
<glyph unicode="r" glyph-name="r" horiz-adv-x="416" d="M201 404Q221 424 245 442T294 474T343 496T388 504Q416 504 416 471Q416 457 412 438T402 398T387 359T371 330L204 332V0H61V491H202Q202 474 200 449T196 407L201 404Z" />
<glyph unicode="s" glyph-name="s" horiz-adv-x="491" d="M258 503Q297 503 344 495T431 465Q429 461 425 449T416 422T407 394T400 377Q360 392 326 397T263 403Q236 403 214 395T191 358Q191 348 199 341T220 327T248 317T278 309Q309 300 341 289T399 258T443
211T460 139Q460 68 403 30T231 -8Q210 -8 185 -6T132 1T79 13T31 32L62 121Q123 99 167 94T236 88Q271 88 295 99T319 142Q319 157 311 166T290 183T260 195T227 205Q193 215 161 226T105 254T65 294T50 354Q50 425 103 464T258 503Z" />
<glyph unicode="t" glyph-name="t" horiz-adv-x="405" d="M225 627V492H368V398H225V176Q225 137 239 119T291 100Q305 100 327 103T376 113L394 20Q362 6 324 -1T254 -8Q203 -8 170 4T118 36T92 82T84 138V398H15V476L93 499Q96 505 101 522T111 558T121 594T128
617L225 627Z" />
<glyph unicode="u" glyph-name="u" horiz-adv-x="558" d="M199 -11Q150 -11 121 2T75 38T54 91T49 156V491H192V187Q192 169 194 153T203 125T223 106T259 99Q280 99 308 110T364 145V491Q400 491 435 491T507 492V0H374Q372 13 372 26T370 53L366 55Q343 35 320
23T274 3T233 -8T199 -11Z" />
<glyph unicode="v" glyph-name="v" horiz-adv-x="551" d="M281 95Q283 100 288 121T301 169T315 225T329 273Q337 297 348 332T369 400T387 460T397 491H541Q532 466 519 427T489 341T457 245T424 149T395 64T372 0H177Q168 25 155 64T126 149T93 245T61 341T32
426T9 491H159L230 263Q234 250 240 227T252 179T265 131T276 95H281Z" />
<glyph unicode="w" glyph-name="w" horiz-adv-x="820" d="M580 115L609 262L664 492H803L670 0H503L445 210L409 369H402L369 210L316 0H149L16 492H157L212 265L242 114H247L280 269L339 492H475L539 262L573 115H580Z" />
<glyph unicode="x" glyph-name="x" horiz-adv-x="520" d="M261 182L157 0H4L173 256L17 491H174L263 325L353 491H506L347 257L514 0H358L261 182Z" />
<glyph unicode="y" glyph-name="y" horiz-adv-x="536" d="M268 89Q271 102 278 132T296 197Q305 227 316 265T338 343T361 422T382 491H526Q514 456 499 409T465 308T428 199T391 89T357 -11T329 -93Q308 -156 265 -186T160 -217Q140 -217 112 -214T38 -198L58
-103Q84 -107 99 -109T129 -112Q163 -112 181 -99T210 -51L230 11H166L14 491H156Q164 464 174 425T196 345T219 263T238 194Q246 165 251 136T261 89H268Z" />
<glyph unicode="z" glyph-name="z" horiz-adv-x="467" d="M197 96H458V0H10V78L260 389L258 395H35V492H445V414L194 103L197 96Z" />
<glyph unicode="{" glyph-name="braceleft" horiz-adv-x="326" d="M221 -166Q180 -166 156 -151T120 -115T105 -72T101 -34V156Q101 198 85 219T31 249V322Q71 330 86 355T101 428V554Q101 579 105 605T123 654T158 689T216 703H305V624H279Q245 624 234 605T222
558V415Q222 391 220 370T210 333T189 305T152 288V287Q196 270 209 237T222 152V-24Q222 -37 224 -49T232 -70T248 -84T276 -89H305V-166H221Z" />
<glyph unicode="|" glyph-name="bar" horiz-adv-x="312" d="M107 -146V707H202V-146H107Z" />
<glyph unicode="}" glyph-name="braceright" horiz-adv-x="326" d="M22 -166V-89H52Q69 -89 79 -84T96 -70T104 -49T106 -24V152Q106 204 118 237T175 287V288Q137 298 122 329T106 401V558Q106 585 95 604T49 624H22V703H112Q148 703 170 692T205 663T222 622T227
573V419Q227 373 244 352T297 322V249Q259 241 243 217T227 156V-25Q227 -40 224 -63T208 -110T172 -149T107 -166H22Z" />
<glyph unicode="~" glyph-name="asciitilde" horiz-adv-x="590" d="M410 231Q378 231 347 238T287 253T232 269T184 276L114 230L65 268Q87 324 120 349T195 375Q221 375 251 368T311 352T369 336T422 329L489 377L538 340Q518 287 487 259T410 231Z" />
</font>
</defs>
</svg>
