<?xml version="1.0" standalone="no"?> <!DOCTYPE svg PUBLIC "-//W3C//DTD SVG 1.0//EN" "http://www.w3.org/TR/2001/REC-SVG-20010904/DTD/svg10.dtd" > <svg xmlns="http://www.w3.org/2000/svg" width="100%" height="100%">
<defs >
<font id="pfagorasanspromedium" horiz-adv-x="448" ><font-face
    font-family="PF Agora Sans Pro"
    units-per-em="1000"
    panose-1="2 0 5 0 0 0 0 2 0 4"
    ascent="750"
    descent="-250"
    alphabetic="0" />
<missing-glyph horiz-adv-x="440" d="M0 686H440V0H0V686ZM360 49L220 298L80 49H360ZM360 637H79L220 388L360 637ZM49 93L190 344L49 594V93ZM390 91V596L249 342L390 91Z" />
<glyph unicode=" " glyph-name="space" horiz-adv-x="282" />
<glyph unicode="!" glyph-name="exclam" horiz-adv-x="251" d="M177 700L176 417L165 181H88L76 417L73 700H177ZM189 50Q189 25 172 8T125 -10Q96 -10 79 7T62 50Q62 75 79 92T125 109Q154 109 171 92T189 50Z" />
<glyph unicode="&quot;" glyph-name="quotedbl" horiz-adv-x="313" d="M188 466L172 687H264L249 466H188ZM67 466L51 687H143L127 466H67Z" />
<glyph unicode="#" glyph-name="numbersign" horiz-adv-x="552" d="M429 403L395 252H473L466 196H383L340 0H276L319 196H188L144 0H81L125 196H50L57 252H137L171 403H90L97 458H183L224 632H286L247 458H379L419 632H481L442 458H513L506 403H429ZM201 252H333L366
403H234L201 252Z" />
<glyph unicode="$" glyph-name="dollar" horiz-adv-x="572" d="M298 734H340V669Q372 666 407 658T470 633Q464 615 459 598T448 562Q410 579 387 584T340 592V374Q372 362 404 348T461 314T501 264T517 192Q517 151 504 120T468 66T412 29T340 8V-75H298V734ZM265
-75H224V5Q183 10 142 21T65 52L93 125Q120 113 140 106T176 95T202 89T224 86V319Q192 329 164 343T115 378T81 425T68 489Q68 526 80 556T113 609T162 645T224 666V734H265V-75ZM428 190Q428 228 403 249T340 285V87Q428 102 428 190ZM153 496Q153 457 172 438T224
407V587Q194 579 174 557T153 496Z" />
<glyph unicode="%" glyph-name="percent" horiz-adv-x="860" d="M372 464Q372 426 364 390T336 325T284 279T204 261Q152 261 119 278T66 323T40 388T33 463Q33 499 40 536T66 602T119 651T205 670Q259 670 291 651T342 601T366 535T372 464ZM288 463Q288 484
286 509T276 556T251 592T205 607Q176 607 159 593T132 558T120 511T117 462Q117 433 120 408T133 364T160 335T205 324Q231 324 247 336T272 368T284 412T288 463ZM309 -21H239L543 704H611L309 -21ZM827 198Q827 160 819 124T791 60T739 14T659 -4Q607 -4 574
13T521 58T495 122T488 198Q488 234 495 271T521 337T574 386T660 405Q714 405 746 386T797 336T821 269T827 198ZM743 198Q743 219 741 244T731 290T706 326T660 341Q631 341 614 327T587 292T575 246T572 197Q572 168 575 143T588 98T615 69T660 58Q686 58 702
70T727 102T739 147T743 198Z" />
<glyph unicode="&amp;" glyph-name="ampersand" horiz-adv-x="755" d="M269 -12Q221 -12 179 0T106 37T57 99T39 186Q39 314 201 402Q175 439 163 471T150 533Q150 561 158 588T185 637T233 672T304 686Q348 686 378 674T427 641T454 597T463 548Q463 519 453
495T424 451T380 412T326 377Q361 326 405 271T497 166Q517 185 534 207T564 259T587 326T602 412H687Q684 359 674 316T648 236T609 169T558 110Q593 77 631 51T705 10L665 -58Q647 -51 625 -39T579 -11T532 22T489 57Q441 23 384 6T269 -12ZM137 192Q137 161
147 138T176 98T218 74T271 65Q345 65 419 113Q395 137 372 165T328 223T286 282T248 335Q201 308 169 274T137 192ZM241 542Q241 520 252 495T284 442Q303 452 320 462T350 486T370 514T378 548Q378 578 359 596T305 615Q288 615 276 608T256 590T245 566T241
542Z" />
<glyph unicode="&apos;" glyph-name="quotesingle" horiz-adv-x="214" d="M76 466L61 687H154L137 466H76Z" />
<glyph unicode="(" glyph-name="parenleft" horiz-adv-x="306" d="M61 283Q61 361 77 428T116 549T167 645T218 713L264 684Q252 666 234 632T199 547T169 431T156 285Q156 195 168 125T198 2T234 -84T265 -138L218 -170Q195 -144 168 -103T117 -4T77 124T61 283Z" />
<glyph unicode=")" glyph-name="parenright" horiz-adv-x="308" d="M239 283Q239 197 223 125T182 -4T131 -102T81 -170L35 -138Q47 -119 65 -85T101 2T131 124T144 285Q144 366 132 432T102 548T66 632T36 684L82 713Q105 687 132 646T183 551T223 429T239 283Z" />
<glyph unicode="*" glyph-name="asterisk" horiz-adv-x="404" d="M330 634Q346 612 351 591T360 544Q330 541 301 537T240 530L326 449Q309 432 292 419T252 395Q239 421 227 448T202 502Q189 476 177 449T152 395Q130 405 113 417T76 449Q98 470 120 490T162
531L47 546Q51 572 57 593T76 636Q101 622 127 607T179 578Q173 606 167 635T155 692Q167 695 179 696T204 697Q216 697 228 696T251 692L227 578L330 634Z" />
<glyph unicode="+" glyph-name="plus" horiz-adv-x="572" d="M328 266V97H257V266H93V335H257V499H328V335H491V266H328Z" />
<glyph unicode="," glyph-name="comma" horiz-adv-x="234" d="M49 53Q49 78 67 96T114 114Q148 114 165 93T183 40Q183 16 175 -9T151 -59T115 -103T69 -136L43 -101Q87 -60 93 -3Q72 2 61 16T49 53Z" />
<glyph unicode="-" glyph-name="hyphen" horiz-adv-x="378" d="M56 225V307H322V225H56Z" />
<glyph unicode="." glyph-name="period" horiz-adv-x="228" d="M176 53Q176 27 158 9T111 -9Q82 -9 65 9T47 53Q47 79 64 96T111 114Q140 114 158 97T176 53Z" />
<glyph unicode="/" glyph-name="slash" horiz-adv-x="350" d="M85 -30H12L269 703H343L85 -30Z" />
<glyph unicode="0" glyph-name="zero" horiz-adv-x="572" d="M540 330Q540 267 528 207T486 99T408 22T287 -7Q208 -7 158 21T80 96T40 203T29 328Q29 387 40 448T80 560T159 643T288 675Q368 675 417 642T494 559T530 447T540 330ZM431 328Q431 367 428 412T410
497T367 563T288 590Q255 590 231 578T190 546T163 500T148 444T140 384T138 326Q138 273 144 228T166 148T212 95T288 75Q331 75 359 97T403 155T425 236T431 328Z" />
<glyph unicode="1" glyph-name="one" horiz-adv-x="572" d="M242 565L97 553V627L251 665H349V0H242V565Z" />
<glyph unicode="2" glyph-name="two" horiz-adv-x="572" d="M195 79H504V0H44V70Q72 96 106 127T177 192T247 262T307 335T350 408T366 477Q366 533 333 559T242 586Q216 586 173 578T72 536L37 601Q100 645 159 660T261 675Q309 675 349 663T417 627T460 568T476
485Q476 427 447 371T374 263T281 166T193 84L195 79Z" />
<glyph unicode="3" glyph-name="three" horiz-adv-x="572" d="M305 411Q339 410 375 400T440 367T489 306T508 212Q508 156 488 115T432 46T350 5T248 -9Q194 -7 141 2T43 33L70 109Q127 92 165 85T234 78Q310 78 354 110T399 212Q399 269 357 300T227 332Q214
332 201 331T174 328Q170 343 167 358T158 388L344 573L341 581H71V665H477L492 598L303 416L305 411Z" />
<glyph unicode="4" glyph-name="four" horiz-adv-x="572" d="M446 665V255H543V178H446V0H342V178H30V248Q62 291 101 345T181 456T261 566T333 665H446ZM338 547Q313 514 287 477T233 401T178 326T125 255H344V547H338Z" />
<glyph unicode="5" glyph-name="five" horiz-adv-x="572" d="M255 344Q229 344 201 337T147 318L87 352L109 665H481V582H196L184 408Q197 411 221 417T285 424Q330 424 371 412T443 374T494 309T513 214Q513 158 493 116T438 46T358 5T262 -9Q211 -9 154 0T48
34L73 110Q130 93 169 86T240 79Q316 79 360 111T404 215Q404 248 392 272T360 312T312 336T255 344Z" />
<glyph unicode="6" glyph-name="six" horiz-adv-x="572" d="M161 374Q198 394 236 406T321 419Q361 419 398 407T462 370T506 306T523 212Q523 160 506 119T458 50T384 8T290 -7Q220 -7 174 17T99 83T60 181T48 302Q48 382 64 450T113 568T199 646T325 674Q378
674 415 664T473 645L453 569Q416 583 385 587T330 591Q279 591 247 568T195 511T166 441T155 377L161 374ZM297 339Q265 339 240 333T197 318T169 302T156 293V274Q156 244 160 210T179 146T220 96T291 76Q354 76 386 113T419 208Q419 236 413 260T393 302T356
329T297 339Z" />
<glyph unicode="7" glyph-name="seven" horiz-adv-x="572" d="M79 582V665H499V592L231 0H127L393 582H79Z" />
<glyph unicode="8" glyph-name="eight" horiz-adv-x="572" d="M181 504Q181 481 192 465T222 436T268 411T324 385Q370 418 388 445T406 500Q406 516 400 533T380 564T344 587T290 597Q260 597 239 587T206 563T187 533T181 504ZM284 71Q316 71 341 80T383 105T410
141T419 186Q419 211 407 230T373 266T317 298T241 331Q215 314 198 295T170 257T156 218T152 181Q152 136 185 104T284 71ZM505 510Q505 492 501 473T487 434T458 392T410 349Q434 337 454 321T490 283T515 236T524 179Q524 139 507 105T459 46T382 7T282 -8Q167
-8 106 41T44 170Q44 194 50 221T69 274T106 324T164 369Q119 396 98 426T76 505Q76 542 92 573T137 628T205 664T293 677Q329 677 367 668T435 639T485 587T505 510Z" />
<glyph unicode="9" glyph-name="nine" horiz-adv-x="572" d="M403 292Q367 271 328 259T243 246Q202 246 165 258T101 295T57 360T41 454Q41 506 58 547T106 616T180 659T274 674Q343 674 389 650T464 583T504 485T516 364Q516 284 500 217T450 100T364 22T239
-6Q185 -6 144 3T84 21L107 97Q143 83 177 79T234 75Q284 75 317 98T369 155T398 226T409 289L403 292ZM266 326Q298 326 323 333T367 348T395 363T408 372V392Q408 420 404 454T386 518T345 567T273 587Q210 587 178 552T145 457Q145 429 151 405T171 364T208
336T266 326Z" />
<glyph unicode=":" glyph-name="colon" horiz-adv-x="229" d="M181 54Q181 28 164 10T116 -8Q86 -8 69 10T52 54Q52 80 69 98T116 116Q145 116 163 98T181 54ZM181 363Q181 337 163 319T116 301Q87 301 70 319T52 363Q52 389 69 406T116 424Q145 424 163 407T181 363Z" />
<glyph unicode=";" glyph-name="semicolon" horiz-adv-x="229" d="M181 363Q181 337 163 319T116 301Q87 301 70 319T52 363Q52 389 69 406T116 424Q145 424 163 407T181 363ZM49 53Q49 78 67 96T114 114Q148 114 165 93T183 40Q183 16 175 -9T151 -59T114 -103T69
-135L42 -100Q86 -59 92 -3Q71 2 60 16T49 53Z" />
<glyph unicode="&lt;" glyph-name="less" horiz-adv-x="576" d="M501 60L82 268V327L501 534V453L173 299L501 140V60Z" />
<glyph unicode="=" glyph-name="equal" horiz-adv-x="576" d="M81 343V411H494V343H81ZM81 191V258H494V191H81Z" />
<glyph unicode="&gt;" glyph-name="greater" horiz-adv-x="576" d="M82 140L410 299L82 453V534L501 327V268L82 60V140Z" />
<glyph unicode="?" glyph-name="question" horiz-adv-x="466" d="M254 440Q286 468 303 493T320 551Q320 586 292 603T221 621Q190 621 154 616T67 594Q61 614 56 633T43 672Q97 691 146 699T235 707Q334 707 384 668T437 561Q437 522 422 491T383 434T333 384T282
339T244 293T228 243Q228 228 230 214T235 180L146 172Q141 199 139 220T136 257Q136 285 144 308T167 352T205 395T254 440ZM267 47Q267 22 250 6T205 -10Q176 -10 159 6T142 47Q142 73 158 89T204 106Q233 106 250 90T267 47Z" />
<glyph unicode="@" glyph-name="at" horiz-adv-x="946" d="M492 704Q579 704 648 679T766 608T839 498T865 354Q865 300 849 260T806 191T744 149T671 135Q654 135 637 138T603 149T574 168T552 196Q527 170 491 156T417 141Q381 141 358 153T323 182T305 220T300
257Q300 303 330 333T422 371Q451 373 479 376T537 382V401Q537 441 523 457T467 473Q441 473 411 468T348 452L330 514Q366 528 406 536T486 545Q517 545 542 539T586 517T614 476T624 413V258Q624 233 638 218T685 203Q704 203 723 211T757 238T782 283T792 350Q792
416 771 469T711 559T617 616T492 636Q422 636 361 612T253 546T180 447T153 324Q153 256 176 199T242 100T341 35T465 11Q493 11 526 15T601 34Q607 19 612 5T623 -25Q589 -41 547 -49T466 -57Q378 -57 307 -29T185 50T108 170T80 322Q80 404 112 474T200 595T331
675T492 704ZM456 319H455Q429 316 412 302T394 265Q394 238 408 223T452 208Q492 208 537 245V327L456 319Z" />
<glyph unicode="A" glyph-name="A" horiz-adv-x="617" d="M490 0Q476 42 464 84T437 169H176L123 0H9Q70 184 128 355T239 686H382L607 0H490ZM365 412Q351 460 338 506T310 599H306L253 416Q252 413 248 401T239 371T228 334T217 297T207 266T202 250H413L365 412Z" />
<glyph unicode="B" glyph-name="B" horiz-adv-x="631" d="M464 357Q498 345 519 325T551 282T565 237T569 197Q569 152 554 116T512 54T448 14T367 0H76V685H346Q398 685 436 672T500 635T539 578T552 506Q552 487 548 467T534 428T506 392T464 361V357ZM457 199Q457
222 450 243T427 280T388 305T333 315H188V82H333Q367 82 391 91T429 116T450 153T457 199ZM438 497Q438 544 410 573T317 603H188V393H317Q376 393 407 421T438 497Z" />
<glyph unicode="C" glyph-name="C" horiz-adv-x="608" d="M371 698Q425 698 469 690T549 670L529 587Q489 600 452 604T384 609Q279 609 227 540T175 341Q175 282 185 234T219 152T284 100T387 81Q400 81 419 82T461 87T506 94T549 104L569 25Q549 17 524 11T472
1T418 -6T365 -9Q277 -9 218 17T123 89T72 199T56 339Q56 396 70 459T119 576T216 663T371 698Z" />
<glyph unicode="D" glyph-name="D" horiz-adv-x="665" d="M77 0V686H316Q403 686 459 659T549 585T595 476T608 345Q608 275 594 213T544 103T452 28T308 0H77ZM192 604V84H297Q322 84 355 91T419 124T470 200T491 339Q491 428 472 480T423 560T361 596T300 604H192Z" />
<glyph unicode="E" glyph-name="E" horiz-adv-x="583" d="M76 0V686H519V604H190V400H467V322H190V83H534V0H76Z" />
<glyph unicode="F" glyph-name="F" horiz-adv-x="552" d="M76 0V686H515V603H190V392H452V312H190V0H76Z" />
<glyph unicode="G" glyph-name="G" horiz-adv-x="646" d="M386 698Q440 698 486 690T567 670L548 588Q506 600 468 605T397 610Q283 610 229 538T175 335Q175 280 184 234T215 154T275 101T370 82Q393 82 424 85T478 95V357H582V26Q528 8 472 0T363 -9Q276 -9
218 17T123 91T72 201T56 340Q56 397 70 460T121 576T222 663T386 698Z" />
<glyph unicode="H" glyph-name="H" horiz-adv-x="679" d="M486 0V317H190Q190 238 190 159T191 0H76V685H191Q191 613 191 544T190 403H486V685H601V0H486Z" />
<glyph unicode="I" glyph-name="I" horiz-adv-x="284" d="M86 0V686H198V0H86Z" />
<glyph unicode="J" glyph-name="J" horiz-adv-x="334" d="M125 687H238L237 140Q237 5 172 -71T-20 -185L-49 -106Q1 -78 34 -54T88 -1T116 60T124 139L125 687Z" />
<glyph unicode="K" glyph-name="K" horiz-adv-x="618" d="M195 396L239 445L466 686H596L332 415L608 0H477L257 339L188 269V0H76V686H188V396H195Z" />
<glyph unicode="L" glyph-name="L" horiz-adv-x="556" d="M76 0V686H190V81H546V0H76Z" />
<glyph unicode="M" glyph-name="M" horiz-adv-x="852" d="M429 186L545 456Q571 513 595 570T645 685H775V0H665V507H662L609 382L472 69H374Q340 150 306 231T234 393Q223 422 211 449T187 504H185Q185 377 185 252T184 0H76V685H211L307 457L422 186H429Z" />
<glyph unicode="N" glyph-name="N" horiz-adv-x="709" d="M523 173V685H632V0H520Q457 97 395 196T270 393L189 524Q188 524 188 524T185 523V0H76V685H190Q250 594 307 504T423 322L517 173H523Z" />
<glyph unicode="O" glyph-name="O" horiz-adv-x="720" d="M663 342Q663 267 644 203T588 92T494 18T364 -9Q282 -9 224 16T129 86T75 196T57 339Q57 411 73 476T127 590T222 668T364 697Q448 697 505 668T597 591T648 478T663 342ZM544 339Q544 388 537 437T511
526T456 590T364 615Q307 615 270 592T212 530T183 441T175 338Q175 210 218 143T364 75Q411 75 445 95T501 151T533 235T544 339Z" />
<glyph unicode="P" glyph-name="P" horiz-adv-x="574" d="M540 482Q540 448 529 411T494 344T428 293T327 273H190L191 0H76V686H317Q422 686 481 633T540 482ZM190 604V354H308Q330 354 351 360T388 380T415 419T425 479Q425 544 390 574T304 604H190Z" />
<glyph unicode="Q" glyph-name="Q" horiz-adv-x="722" d="M662 340Q662 233 624 151T511 28Q549 17 587 8T663 -12Q654 -34 646 -56T629 -101L348 -9Q193 2 125 91T56 339Q56 411 72 476T126 590T221 668T363 697Q447 697 504 668T596 590T647 476T662 340ZM543
339Q543 388 536 437T510 525T455 588T363 613Q306 613 270 590T212 528T183 440T174 337Q174 209 218 141T363 73Q410 73 444 93T500 150T532 234T543 339Z" />
<glyph unicode="R" glyph-name="R" horiz-adv-x="613" d="M545 493Q545 434 515 385T425 316Q446 310 460 298T484 270T502 235T515 195L571 0H458Q444 46 431 91T405 184Q388 246 358 267T281 288H188V0H76V686H331Q385 686 425 672T492 631T532 570T545 493ZM311
370Q330 370 351 375T389 393T417 429T429 487Q429 549 395 576T310 603H188V370H311Z" />
<glyph unicode="S" glyph-name="S" horiz-adv-x="595" d="M303 698Q350 698 404 689T505 653L473 575Q423 596 379 602T299 609Q245 609 212 582T179 501Q179 477 191 461T224 433T271 414T325 399Q361 390 400 378T473 344T527 286T549 191Q549 91 478 41T280
-9Q227 -9 164 3T46 45L79 126Q145 97 197 89T286 80Q356 80 394 104T432 191Q432 218 422 235T395 265T353 286T300 302Q253 314 210 327T133 362T81 415T61 498Q61 591 125 644T303 698Z" />
<glyph unicode="T" glyph-name="T" horiz-adv-x="584" d="M236 0V601H17V686H567V601H349L348 0H236Z" />
<glyph unicode="U" glyph-name="U" horiz-adv-x="685" d="M615 249Q615 190 599 143T549 61T464 9T342 -9Q270 -9 219 9T134 60T86 141T70 249V686H182V246Q182 159 224 117T344 75Q419 75 462 116T505 246L504 686H616L615 249Z" />
<glyph unicode="V" glyph-name="V" horiz-adv-x="596" d="M301 109Q310 141 319 174T338 241Q355 301 371 356T402 466T434 574T467 686H586Q531 514 476 343T365 0H229L9 686H129Q146 629 162 574T194 465T226 355T260 240Q270 208 278 175T295 109H301Z" />
<glyph unicode="W" glyph-name="W" horiz-adv-x="885" d="M431 533Q423 494 415 452T399 372Q398 367 392 339T374 262T349 147T316 0H176L9 686H128Q138 644 148 595T170 495T192 395T213 304Q221 263 230 218T248 131H254L287 294Q307 388 330 491T374 686H495Q498
672 506 642T524 572T546 489T567 407T584 339T595 300Q596 295 602 272T614 222T627 168T636 132H643Q652 175 661 222T678 311Q687 352 697 400T718 498T740 596T760 686H876Q858 609 836 517T792 331T748 151T710 0H573Q550 88 525 185T476 372Q472 388 467
409T457 452T447 496T438 532L431 533Z" />
<glyph unicode="X" glyph-name="X" horiz-adv-x="597" d="M23 685H151Q189 619 226 556T302 426L455 685H582Q528 601 475 519T367 353Q422 264 477 176T588 0H462Q420 69 379 139T295 279Q254 209 214 139T133 0H7L230 356L23 685Z" />
<glyph unicode="Y" glyph-name="Y" horiz-adv-x="576" d="M225 283L9 686H127Q150 641 172 597T217 507L283 369H288Q306 404 323 441T359 513L450 686H566L345 287V0H225V283Z" />
<glyph unicode="Z" glyph-name="Z" horiz-adv-x="560" d="M172 86L540 85V0H20V79L371 595L368 601H45V686H522V608L169 92L172 86Z" />
<glyph unicode="[" glyph-name="bracketleft" horiz-adv-x="284" d="M58 -160V698H249V632H152V-95H249V-160H58Z" />
<glyph unicode="\" glyph-name="backslash" horiz-adv-x="350" d="M12 703H85L343 -30H269L12 703Z" />
<glyph unicode="]" glyph-name="bracketright" horiz-adv-x="284" d="M36 -160V-95H132V632H36V698H225V-160H36Z" />
<glyph unicode="^" glyph-name="asciicircum" horiz-adv-x="463" d="M358 369L228 599L96 369H20L200 680H257L435 369H358Z" />
<glyph unicode="_" glyph-name="underscore" horiz-adv-x="500" d="M0 -138V-81H500V-138H0Z" />
<glyph unicode="`" glyph-name="grave" horiz-adv-x="501" d="M139 671L208 742L343 578L298 533L139 671Z" />
<glyph unicode="a" glyph-name="a" horiz-adv-x="552" d="M455 76H520L526 14Q505 3 478 -2T425 -8Q394 -8 376 3T355 52Q355 52 353 54Q326 31 301 18T253 -1T213 -8T184 -9Q140 -9 112 5T67 40T44 86T37 132Q37 167 52 194T93 239T155 268T231 280L350 288V315Q350
369 330 391T251 414Q215 414 175 407T98 388Q93 405 88 423T78 458Q120 477 174 487T277 498Q318 498 351 490T407 462T442 410T455 332V76ZM237 219Q193 216 173 197T152 144Q152 106 170 87T231 67Q259 67 290 81T350 122V227L237 219Z" />
<glyph unicode="b" glyph-name="b" horiz-adv-x="545" d="M160 462Q162 461 163 460T166 458Q208 483 245 492T311 502Q365 502 401 483T460 429T491 347T500 243Q500 192 490 147T454 67T385 13T276 -7Q220 -7 163 4T54 38V713H163V569L160 462ZM283 416Q251
416 220 405T164 380V94Q192 81 219 77T270 73Q297 73 319 81T356 108T380 160T389 241Q389 295 381 329T359 382T325 409T283 416Z" />
<glyph unicode="c" glyph-name="c" horiz-adv-x="469" d="M155 246Q155 208 161 177T183 124T223 90T286 77Q323 77 355 84T423 106L447 33Q413 15 367 4T270 -7Q205 -7 162 12T92 64T55 142T44 239Q44 280 53 326T88 410T159 474T276 500Q308 500 345 496T422
476L402 398Q368 409 341 411T290 414Q224 414 190 369T155 246Z" />
<glyph unicode="d" glyph-name="d" horiz-adv-x="546" d="M248 501Q261 501 278 499T313 493T348 483T381 467V713H490V0H386L385 45Q383 47 383 47Q350 20 309 7T232 -6Q177 -6 141 13T84 66T53 142T44 235Q44 291 55 339T90 424T153 480T248 501ZM381 387Q372
393 359 398T331 408T299 415T269 418Q246 418 226 410T190 381T165 325T155 235Q155 187 163 156T186 107T221 81T265 73Q278 73 294 77T327 87T357 101T381 117V387Z" />
<glyph unicode="e" glyph-name="e" horiz-adv-x="523" d="M270 501Q320 501 355 489T414 456T451 411T470 359T478 308T480 265V226H155Q155 194 161 167T183 119T224 87T287 75Q329 75 366 83T444 108L468 40Q422 15 374 4T274 -7Q205 -7 161 13T90 67T54 147T44
244Q44 280 53 324T86 408T155 474T270 501ZM274 427Q242 427 221 416T186 385T166 340T157 286H379Q379 317 374 343T357 387T325 416T274 427Z" />
<glyph unicode="f" glyph-name="f" horiz-adv-x="386" d="M102 415H34V474L103 493V564Q103 600 112 629T142 679T195 711T273 722Q296 722 328 719T390 708L376 632Q356 636 335 638T297 640Q254 640 232 623T209 564V490H351V415H209Q209 410 209 379T209 304T209
208T208 112T208 36T208 0H102V415Z" />
<glyph unicode="g" glyph-name="g" horiz-adv-x="571" d="M124 197Q98 211 80 241T61 322Q61 370 79 404T126 460T193 492T269 502Q296 502 321 499T367 490H533V429H460L458 424Q474 406 481 380T488 327Q488 286 472 255T426 202T358 169T273 158L218 157Q186
157 167 150T147 123Q147 109 160 102T193 94H328Q419 94 469 58T519 -53Q519 -88 503 -118T454 -170T373 -204T259 -217Q192 -217 150 -205T83 -173T50 -128T41 -75Q41 -36 61 -7T105 36Q47 50 47 107Q47 127 53 142T71 167T95 183T122 194L124 197ZM199 22Q190
19 181 11T164 -8T152 -31T147 -56Q147 -73 152 -88T171 -115T210 -134T275 -141Q341 -141 375 -118T409 -56Q409 -42 405 -28T390 -3T360 15T308 22H199ZM379 327Q379 345 374 363T357 395T324 418T273 427Q221 427 195 400T169 327Q169 282 194 256T265 229Q314
229 346 252T379 327Z" />
<glyph unicode="h" glyph-name="h" horiz-adv-x="539" d="M167 446Q210 470 256 485T337 501Q387 501 416 487T460 450T479 398T483 338V0H374V314Q374 338 372 356T362 387T339 407T296 414Q266 414 230 401T164 371V0H54V713H162V554L159 450L167 446Z" />
<glyph unicode="i" glyph-name="i" horiz-adv-x="274" d="M81 0V489H190V0H81ZM204 621Q204 595 186 577T136 558Q107 558 89 576T70 621Q70 648 88 666T136 685Q167 685 185 667T204 621Z" />
<glyph unicode="j" glyph-name="j" horiz-adv-x="284" d="M89 489H198Q198 356 198 270T198 132T198 56T197 23Q195 -29 185 -67T151 -134T91 -184T0 -222Q-3 -216 -7 -206T-15 -185T-24 -164T-31 -148Q6 -127 29 -109T66 -71T84 -27T89 32V489ZM212 621Q212 595
194 577T145 558Q115 558 97 576T79 621Q79 648 97 666T145 685Q175 685 193 667T212 621Z" />
<glyph unicode="k" glyph-name="k" horiz-adv-x="489" d="M166 302L346 489H469L282 297L316 256L483 0H362Q324 58 288 116T214 233L164 183V0H54V712H164L163 406Q163 379 162 354T160 304L166 302Z" />
<glyph unicode="l" glyph-name="l" horiz-adv-x="248" d="M177 0H69V713H178L177 0Z" />
<glyph unicode="m" glyph-name="m" horiz-adv-x="834" d="M668 0V317Q668 365 653 389T590 413Q561 413 526 402T465 374Q468 357 469 340T470 309V0H362Q362 83 362 165T361 330Q361 372 343 392T291 412Q260 412 226 400T163 370V0H54V489H158L160 443L164 440Q206
469 250 484T331 499Q414 499 450 438Q468 451 490 462T535 482T582 495T626 500Q677 500 707 485T752 446T773 392T778 332V0H668Z" />
<glyph unicode="n" glyph-name="n" horiz-adv-x="539" d="M374 0V314Q374 339 371 357T360 388T337 407T296 414Q266 414 230 401T164 371V0H54V489H159L160 446L164 444Q206 471 253 486T335 501Q384 501 413 487T458 450T478 398T483 338V0H374Z" />
<glyph unicode="o" glyph-name="o" horiz-adv-x="550" d="M506 244Q506 195 494 150T455 69T382 12T270 -9Q206 -9 163 11T94 65T56 146T44 243Q44 293 57 339T98 421T170 478T278 500Q342 500 386 479T456 422T494 340T506 244ZM392 243Q392 274 388 305T372
362T337 404T278 420Q242 420 219 405T182 364T163 307T157 243Q157 208 161 177T179 123T216 85T278 71Q314 71 336 86T370 125T387 180T392 243Z" />
<glyph unicode="p" glyph-name="p" horiz-adv-x="545" d="M165 442Q198 468 236 482T312 496Q366 496 402 477T460 423T491 345T500 249Q500 195 489 148T454 66T392 11T298 -9Q284 -9 267 -8T232 -3T196 7T163 23V-208H54V490H158L160 446L165 442ZM275 70Q297
70 318 78T355 108T380 164T390 253Q390 300 382 331T359 380T324 405T279 413Q265 413 249 409T216 399T186 384T164 368V101Q172 95 185 90T213 80T244 73T275 70Z" />
<glyph unicode="q" glyph-name="q" horiz-adv-x="546" d="M383 21Q379 25 376 26Q336 6 302 -2T239 -11Q185 -11 148 6T88 54T55 129T45 225Q45 279 56 328T93 415T165 475T278 497Q327 497 384 486T490 454Q490 287 490 122T489 -208H382V-81Q382 -56 382 -31T383
21ZM261 72Q292 72 323 82T380 107V397Q354 408 329 412T280 416Q225 416 191 377T155 243Q155 191 163 158T185 106T218 80T261 72Z" />
<glyph unicode="r" glyph-name="r" horiz-adv-x="380" d="M174 412Q193 430 216 446T262 474T309 494T352 502Q378 502 378 473Q378 463 375 449T367 420T356 392T343 369Q301 367 259 364T175 358V0H65V489H173Q172 472 171 453T168 416L174 412Z" />
<glyph unicode="s" glyph-name="s" horiz-adv-x="466" d="M245 500Q262 500 282 498T324 492T365 481T403 464Q400 459 397 449T389 429T382 408T375 393Q337 408 305 413T246 419Q212 419 186 405T160 357Q160 343 169 333T193 316T224 302T256 292Q287 283 318
273T374 246T414 203T430 136Q430 64 375 29T221 -7Q200 -7 175 -5T126 2T78 14T35 32L64 103Q117 81 157 76T223 70Q265 70 293 84T322 137Q322 154 314 166T292 186T261 200T224 213Q191 224 161 234T107 261T69 300T54 358Q54 429 106 464T245 500Z" />
<glyph unicode="t" glyph-name="t" horiz-adv-x="378" d="M196 619V490H341V415H195V156Q195 119 208 99T262 78Q278 78 300 82T351 93L366 21Q337 7 302 1T236 -6Q154 -6 121 30T88 125V415H18V474L94 497Q95 500 99 516T109 553T118 589T124 609L196 619Z" />
<glyph unicode="u" glyph-name="u" horiz-adv-x="528" d="M199 -11Q149 -11 121 3T77 39T58 91T54 150V489H163V175Q163 155 165 137T174 105T197 83T239 75Q264 75 298 88T364 130V489Q392 489 419 489T473 490V0H369L367 54L364 56Q341 35 317 22T272 2T231
-8T199 -11Z" />
<glyph unicode="v" glyph-name="v" horiz-adv-x="503" d="M256 77Q258 83 263 103T276 149T292 205T309 260Q320 292 332 329T354 400T373 457T383 489H493Q475 438 453 375T407 245T361 114T320 0H179L9 489H122L200 249Q206 231 212 209T225 163T238 117T251 77H256Z" />
<glyph unicode="w" glyph-name="w" horiz-adv-x="765" d="M548 96L581 244L644 490H752L612 0H488L423 219L380 386H374L334 219L275 0H151L12 490H121L183 249L218 96H223L260 254L325 490H430L503 245L542 96H548Z" />
<glyph unicode="x" glyph-name="x" horiz-adv-x="472" d="M346 0Q317 48 291 97T234 193Q205 145 178 96T121 0H4Q46 64 87 127T170 255Q132 313 94 371T18 489H139Q164 447 187 404T237 318Q263 360 287 403T337 489H455L300 257L466 0H346V0Z" />
<glyph unicode="y" glyph-name="y" horiz-adv-x="494" d="M275 162Q298 242 324 325T374 489H483Q436 347 386 199T288 -90Q268 -153 228 -184T129 -215Q115 -215 92 -213T22 -198L38 -124Q64 -129 81 -131T114 -134Q145 -134 163 -121T194 -69Q200 -49 206 -31T219
6H168Q130 128 92 248T16 489H125Q136 453 148 412T172 327T196 242T219 160Q227 131 233 106T242 68H248L275 162Z" />
<glyph unicode="z" glyph-name="z" horiz-adv-x="436" d="M151 76H426V0H11V63L277 408L275 413H39V490H414V426L149 82L151 76Z" />
<glyph unicode="{" glyph-name="braceleft" horiz-adv-x="292" d="M204 -167Q175 -167 156 -157T125 -131T108 -96T100 -59T98 -28T98 -8V162Q98 198 84 226T30 261V319Q66 327 82 354T98 425V538Q98 561 100 589T113 643T143 685T198 702H270V637H246Q216 637
205 618T193 571V418Q193 396 191 376T182 339T162 310T128 292Q150 281 163 268T182 237T191 197T193 146V-38Q193 -52 194 -63T201 -84T216 -98T242 -103H270V-167H204Z" />
<glyph unicode="|" glyph-name="bar" horiz-adv-x="274" d="M97 -142V703H172V-142H97Z" />
<glyph unicode="}" glyph-name="braceright" horiz-adv-x="292" d="M23 -167V-103H51Q83 -103 92 -84T101 -38V146Q101 174 102 196T110 236T130 267T165 292Q127 303 114 336T101 411V571Q101 599 90 618T48 637H23V702H96Q131 702 151 688T181 653T193 607T196
559V425Q196 383 211 355T264 319V261Q244 258 231 248T210 225T199 195T196 162V-8Q196 -16 196 -42T186 -96T155 -145T90 -167H23Z" />
<glyph unicode="~" glyph-name="asciitilde" horiz-adv-x="572" d="M396 240Q366 240 337 247T280 263T229 279T183 286L111 239L71 272Q90 319 121 343T192 367Q216 367 245 360T303 344T359 328T408 320L476 368L516 337Q498 292 468 266T396 240Z" />
</font>
</defs>
</svg>
